<?xml version="1.0" encoding="UTF-8" standalone="no"?>
<!DOCTYPE svg PUBLIC "-//W3C//DTD SVG 1.1//EN" "http://www.w3.org/Graphics/SVG/1.1/DTD/svg11.dtd">
<svg width="100%" height="100%" viewBox="0 0 1812 1967" version="1.1" xmlns="http://www.w3.org/2000/svg" xmlns:xlink="http://www.w3.org/1999/xlink" xml:space="preserve" xmlns:serif="http://www.serif.com/" style="fill-rule:evenodd;clip-rule:evenodd;">
    <g transform="matrix(4.166667,0,0,4.166667,-1415.950308,172.67554)">
        <path d="M575.26,20.97L692.49,89.87C704.634,97.008 712.145,110.054 712.22,124.14L712.95,262.81C713.047,280.294 703.584,296.501 688.31,305.01L573.18,369.12C559.319,376.84 542.363,376.68 528.65,368.7L422.82,307.1C405.92,297.262 395.491,279.124 395.49,259.57L395.49,136.52C395.488,114.712 406.811,94.398 425.36,82.93L524.66,21.53C540.096,11.988 559.617,11.772 575.26,20.97Z" style="fill:rgb(0,15,133);stroke:rgb(0,156,249);stroke-width:27px;"/>
    </g>
    <g transform="matrix(27.889288,0,0,27.889288,-22918.535859,-11039.669751)">
        <g transform="matrix(50,0,0,50,871.399968,451.548644)">
        </g>
        <text x="835.292px" y="451.549px" style="font-family:'Palatino-Roman', 'Palatino';font-size:50px;fill:white;">V</text>
    </g>
</svg>
